<mxfile host="65bd71144e">
    <diagram id="VQBgHZBDyX-M5T0n5Nru" name="第 1 页">
        <mxGraphModel dx="1177" dy="790" grid="1" gridSize="10" guides="1" tooltips="1" connect="1" arrows="1" fold="1" page="1" pageScale="1" pageWidth="827" pageHeight="1169" math="0" shadow="0">
            <root>
                <mxCell id="0"/>
                <mxCell id="1" parent="0"/>
                <mxCell id="2" value="C标准库(libc)" style="rounded=0;whiteSpace=wrap;html=1;fontSize=14;" vertex="1" parent="1">
                    <mxGeometry x="200" y="160" width="440" height="80" as="geometry"/>
                </mxCell>
                <mxCell id="3" value="" style="endArrow=none;html=1;fontSize=14;entryX=0.9;entryY=0;entryDx=0;entryDy=0;entryPerimeter=0;exitX=0.071;exitY=1;exitDx=0;exitDy=0;exitPerimeter=0;" edge="1" parent="1" source="19" target="5">
                    <mxGeometry width="50" height="50" relative="1" as="geometry">
                        <mxPoint x="160" y="260" as="sourcePoint"/>
                        <mxPoint x="720" y="260" as="targetPoint"/>
                    </mxGeometry>
                </mxCell>
                <mxCell id="4" value="用户空间" style="text;html=1;resizable=0;autosize=1;align=center;verticalAlign=middle;points=[];fillColor=none;strokeColor=none;rounded=0;fontSize=14;" vertex="1" parent="1">
                    <mxGeometry x="640" y="240" width="70" height="20" as="geometry"/>
                </mxCell>
                <mxCell id="5" value="内核空间" style="text;html=1;resizable=0;autosize=1;align=center;verticalAlign=middle;points=[];fillColor=none;strokeColor=none;rounded=0;fontSize=14;" vertex="1" parent="1">
                    <mxGeometry x="640" y="260" width="70" height="20" as="geometry"/>
                </mxCell>
                <mxCell id="6" value="VFS(Virtual File System)" style="rounded=0;whiteSpace=wrap;html=1;fontSize=14;" vertex="1" parent="1">
                    <mxGeometry x="200" y="280" width="440" height="80" as="geometry"/>
                </mxCell>
                <mxCell id="7" value="Ext2/3" style="rounded=0;whiteSpace=wrap;html=1;fontSize=14;" vertex="1" parent="1">
                    <mxGeometry x="200" y="380" width="90" height="60" as="geometry"/>
                </mxCell>
                <mxCell id="8" value="XFS" style="rounded=0;whiteSpace=wrap;html=1;fontSize=14;" vertex="1" parent="1">
                    <mxGeometry x="300" y="380" width="90" height="60" as="geometry"/>
                </mxCell>
                <mxCell id="9" value="Proc" style="rounded=0;whiteSpace=wrap;html=1;fontSize=14;" vertex="1" parent="1">
                    <mxGeometry x="400" y="380" width="90" height="60" as="geometry"/>
                </mxCell>
                <mxCell id="10" value="sysfs" style="rounded=0;whiteSpace=wrap;html=1;fontSize=14;" vertex="1" parent="1">
                    <mxGeometry x="500" y="380" width="90" height="60" as="geometry"/>
                </mxCell>
                <mxCell id="11" value="..." style="text;html=1;resizable=0;autosize=1;align=center;verticalAlign=middle;points=[];fillColor=none;strokeColor=none;rounded=0;fontSize=14;fontStyle=1" vertex="1" parent="1">
                    <mxGeometry x="600" y="390" width="30" height="20" as="geometry"/>
                </mxCell>
                <mxCell id="12" value="应用程序1" style="rounded=0;whiteSpace=wrap;html=1;fontSize=14;" vertex="1" parent="1">
                    <mxGeometry x="200" y="60" width="120" height="60" as="geometry"/>
                </mxCell>
                <mxCell id="13" value="应用程序2" style="rounded=0;whiteSpace=wrap;html=1;fontSize=14;" vertex="1" parent="1">
                    <mxGeometry x="360" y="60" width="120" height="60" as="geometry"/>
                </mxCell>
                <mxCell id="14" value="应用程序3" style="rounded=0;whiteSpace=wrap;html=1;fontSize=14;" vertex="1" parent="1">
                    <mxGeometry x="520" y="60" width="120" height="60" as="geometry"/>
                </mxCell>
                <mxCell id="15" value="" style="endArrow=classic;html=1;fontSize=14;exitX=0.5;exitY=1;exitDx=0;exitDy=0;" edge="1" parent="1" source="12">
                    <mxGeometry width="50" height="50" relative="1" as="geometry">
                        <mxPoint x="310" y="230" as="sourcePoint"/>
                        <mxPoint x="260" y="160" as="targetPoint"/>
                    </mxGeometry>
                </mxCell>
                <mxCell id="16" value="" style="endArrow=classic;html=1;fontSize=14;exitX=0.5;exitY=1;exitDx=0;exitDy=0;entryX=0.5;entryY=0;entryDx=0;entryDy=0;" edge="1" parent="1" source="13" target="2">
                    <mxGeometry width="50" height="50" relative="1" as="geometry">
                        <mxPoint x="270" y="130" as="sourcePoint"/>
                        <mxPoint x="270" y="170" as="targetPoint"/>
                    </mxGeometry>
                </mxCell>
                <mxCell id="17" value="" style="endArrow=classic;html=1;fontSize=14;exitX=0.5;exitY=1;exitDx=0;exitDy=0;entryX=0.864;entryY=-0.012;entryDx=0;entryDy=0;entryPerimeter=0;" edge="1" parent="1" source="14" target="2">
                    <mxGeometry width="50" height="50" relative="1" as="geometry">
                        <mxPoint x="430" y="130" as="sourcePoint"/>
                        <mxPoint x="430" y="170" as="targetPoint"/>
                    </mxGeometry>
                </mxCell>
                <mxCell id="18" value="" style="endArrow=classic;html=1;fontSize=14;exitX=0.5;exitY=1;exitDx=0;exitDy=0;entryX=0.5;entryY=0;entryDx=0;entryDy=0;" edge="1" parent="1" source="2" target="6">
                    <mxGeometry width="50" height="50" relative="1" as="geometry">
                        <mxPoint x="590" y="130" as="sourcePoint"/>
                        <mxPoint x="590.1599999999999" y="169.03999999999996" as="targetPoint"/>
                    </mxGeometry>
                </mxCell>
                <mxCell id="19" value="系统调用" style="text;html=1;resizable=0;autosize=1;align=center;verticalAlign=middle;points=[];fillColor=none;strokeColor=none;rounded=0;fontSize=14;" vertex="1" parent="1">
                    <mxGeometry x="130" y="240" width="70" height="20" as="geometry"/>
                </mxCell>
            </root>
        </mxGraphModel>
    </diagram>
</mxfile>